PathFileType	4	(X/Y/Z)	C:\Users\italobelli\Desktop\GitHub\PTbot_officialCBL\Personal_Results\FLX03_noisy1.trc
DataRate	CameraRate	NumFrames	NumMarkers	Units	OrigDataRate	OrigDataStartFrame	OrigNumFrames
106.125000	106.125000	42	9	m	106.125000	744	850
Frame#	Time		gu		centelbow		EpL		centpxt8		centijc7		ij		ts		aa		ai
			X1	Y1	Z1	X2	Y2	Z2	X3	Y3	Z3	X4	Y4	Z4	X5	Y5	Z5	X6	Y6	Z6	X7	Y7	Z7	X8	Y8	Z8	X9	Y9	Z9

744	7.0012	-0.077041	-0.014648	0.16737	-0.12315	-0.25481	0.17757	-0.10296	-0.25308	0.20265	-0.046816	-0.15316	-0.008669	-0.046816	0.031938	-0.008669	0	0	0	-0.13338	0.025319	0.050446	-0.10847	0.021735	0.16703	-0.1437	-0.087653	0.054509
745	7.0106	-0.077045	-0.014641	0.16737	-0.12331	-0.25477	0.17759	-0.10313	-0.25303	0.20269	-0.046816	-0.15316	-0.008669	-0.046816	0.031938	-0.008669	0	0	0	-0.13338	0.025316	0.050441	-0.10849	0.021739	0.16703	-0.1437	-0.087656	0.054503
746	7.02	-0.07705	-0.014634	0.16737	-0.12347	-0.25472	0.17763	-0.1033	-0.25298	0.20274	-0.046816	-0.15316	-0.008669	-0.046816	0.031938	-0.008669	0	0	0	-0.13338	0.025314	0.050435	-0.10851	0.021743	0.16703	-0.14369	-0.087658	0.054497
747	7.0294	-0.077058	-0.014627	0.16738	-0.12363	-0.25467	0.17768	-0.10347	-0.25293	0.2028	-0.046816	-0.15316	-0.008669	-0.046816	0.031938	-0.008669	0	0	0	-0.13338	0.025311	0.050429	-0.10854	0.021747	0.16703	-0.14369	-0.087661	0.05449
748	7.0389	-0.077067	-0.01462	0.16738	-0.12379	-0.25462	0.17774	-0.10364	-0.25287	0.20288	-0.046816	-0.15316	-0.008669	-0.046816	0.031938	-0.008669	0	0	0	-0.13338	0.025308	0.050424	-0.10856	0.021751	0.16703	-0.14368	-0.087665	0.054484
749	7.0483	-0.077078	-0.014613	0.16738	-0.12395	-0.25457	0.17782	-0.10381	-0.25281	0.20296	-0.046816	-0.15316	-0.008669	-0.046816	0.031938	-0.008669	0	0	0	-0.13338	0.025304	0.050418	-0.10858	0.021754	0.16703	-0.14368	-0.087668	0.054478
750	7.0577	-0.07709	-0.014605	0.16738	-0.12411	-0.25452	0.1779	-0.10398	-0.25275	0.20306	-0.046816	-0.15316	-0.008669	-0.046816	0.031938	-0.008669	0	0	0	-0.13338	0.0253	0.050412	-0.1086	0.021757	0.16702	-0.14368	-0.087672	0.054472
751	7.0671	-0.077104	-0.014598	0.16738	-0.12427	-0.25446	0.178	-0.10414	-0.25269	0.20317	-0.046816	-0.15316	-0.008669	-0.046816	0.031938	-0.008669	0	0	0	-0.13338	0.025296	0.050406	-0.10862	0.02176	0.16702	-0.14368	-0.087676	0.054466
752	7.0766	-0.077119	-0.014591	0.16738	-0.12442	-0.25441	0.17811	-0.10431	-0.25263	0.20329	-0.046816	-0.15316	-0.008669	-0.046816	0.031938	-0.008669	0	0	0	-0.13338	0.025292	0.050401	-0.10865	0.021762	0.16702	-0.14367	-0.087681	0.05446
753	7.086	-0.077136	-0.014584	0.16738	-0.12458	-0.25435	0.17824	-0.10448	-0.25256	0.20342	-0.046816	-0.15316	-0.008669	-0.046816	0.031938	-0.008669	0	0	0	-0.13338	0.025287	0.050395	-0.10867	0.021764	0.16702	-0.14367	-0.087685	0.054454
754	7.0954	-0.077155	-0.014577	0.16739	-0.12474	-0.2543	0.17837	-0.10464	-0.2525	0.20357	-0.046816	-0.15316	-0.008669	-0.046816	0.031938	-0.008669	0	0	0	-0.13338	0.025283	0.050389	-0.10869	0.021766	0.16702	-0.14367	-0.08769	0.054449
755	7.1048	-0.077174	-0.014569	0.16739	-0.12489	-0.25424	0.17851	-0.10481	-0.25243	0.20372	-0.046816	-0.15316	-0.008669	-0.046816	0.031938	-0.008669	0	0	0	-0.13339	0.025278	0.050383	-0.10871	0.021768	0.16702	-0.14367	-0.087695	0.054443
756	7.1143	-0.077195	-0.014562	0.16739	-0.12505	-0.25418	0.17866	-0.10497	-0.25236	0.20388	-0.046816	-0.15316	-0.008669	-0.046816	0.031938	-0.008669	0	0	0	-0.13339	0.025272	0.050377	-0.10874	0.021769	0.16702	-0.14366	-0.0877	0.054438
757	7.1237	-0.077217	-0.014554	0.16739	-0.12521	-0.25412	0.17883	-0.10513	-0.25229	0.20405	-0.046816	-0.15316	-0.008669	-0.046816	0.031938	-0.008669	0	0	0	-0.13339	0.025267	0.050371	-0.10876	0.021771	0.16702	-0.14366	-0.087706	0.054433
758	7.1331	-0.07724	-0.014547	0.16739	-0.12536	-0.25406	0.179	-0.1053	-0.25222	0.20422	-0.046816	-0.15316	-0.008669	-0.046816	0.031938	-0.008669	0	0	0	-0.13339	0.025262	0.050365	-0.10878	0.021772	0.16702	-0.14366	-0.087711	0.054428
759	7.1425	-0.077263	-0.014539	0.16739	-0.12551	-0.25401	0.17918	-0.10546	-0.25214	0.20441	-0.046816	-0.15316	-0.008669	-0.046816	0.031938	-0.008669	0	0	0	-0.1334	0.025256	0.050359	-0.10881	0.021773	0.16702	-0.14366	-0.087717	0.054423
760	7.1519	-0.077288	-0.014531	0.16739	-0.12567	-0.25395	0.17937	-0.10562	-0.25207	0.20461	-0.046816	-0.15316	-0.008669	-0.046816	0.031938	-0.008669	0	0	0	-0.1334	0.025251	0.050354	-0.10883	0.021774	0.16701	-0.14366	-0.087723	0.054419
761	7.1614	-0.077314	-0.014523	0.16739	-0.12582	-0.25388	0.17956	-0.10578	-0.252	0.20481	-0.046816	-0.15316	-0.008669	-0.046816	0.031938	-0.008669	0	0	0	-0.1334	0.025245	0.050348	-0.10885	0.021774	0.16701	-0.14366	-0.087729	0.054414
762	7.1708	-0.07734	-0.014515	0.1674	-0.12597	-0.25382	0.17977	-0.10594	-0.25192	0.20502	-0.046816	-0.15316	-0.008669	-0.046816	0.031938	-0.008669	0	0	0	-0.1334	0.025239	0.050342	-0.10887	0.021775	0.16701	-0.14366	-0.087735	0.05441
763	7.1802	-0.077367	-0.014506	0.1674	-0.12612	-0.25376	0.17998	-0.10609	-0.25185	0.20523	-0.046816	-0.15316	-0.008669	-0.046816	0.031938	-0.008669	0	0	0	-0.13341	0.025233	0.050337	-0.1089	0.021776	0.16701	-0.14366	-0.087741	0.054406
764	7.1896	-0.077395	-0.014498	0.1674	-0.12627	-0.2537	0.1802	-0.10625	-0.25177	0.20546	-0.046816	-0.15316	-0.008669	-0.046816	0.031938	-0.008669	0	0	0	-0.13341	0.025227	0.050331	-0.10892	0.021776	0.16701	-0.14366	-0.087747	0.054403
765	7.1991	-0.077423	-0.014489	0.1674	-0.12642	-0.25364	0.18043	-0.10641	-0.2517	0.20568	-0.046816	-0.15316	-0.008669	-0.046816	0.031938	-0.008669	0	0	0	-0.13342	0.025221	0.050325	-0.10894	0.021777	0.16701	-0.14366	-0.087753	0.054399
766	7.2085	-0.077452	-0.01448	0.1674	-0.12657	-0.25358	0.18066	-0.10656	-0.25163	0.20592	-0.046816	-0.15316	-0.008669	-0.046816	0.031938	-0.008669	0	0	0	-0.13342	0.025215	0.05032	-0.10897	0.021777	0.16701	-0.14366	-0.087759	0.054396
767	7.2179	-0.077481	-0.014471	0.1674	-0.12672	-0.25352	0.1809	-0.10671	-0.25155	0.20616	-0.046816	-0.15316	-0.008669	-0.046816	0.031938	-0.008669	0	0	0	-0.13342	0.025209	0.050314	-0.10899	0.021778	0.16701	-0.14366	-0.087765	0.054393
768	7.2273	-0.07751	-0.014461	0.1674	-0.12687	-0.25346	0.18114	-0.10687	-0.25148	0.20641	-0.046816	-0.15316	-0.008669	-0.046816	0.031938	-0.008669	0	0	0	-0.13343	0.025203	0.050309	-0.10901	0.021778	0.16701	-0.14366	-0.087771	0.054391
769	7.2367	-0.077539	-0.014451	0.1674	-0.12701	-0.2534	0.18139	-0.10702	-0.2514	0.20665	-0.046816	-0.15316	-0.008669	-0.046816	0.031938	-0.008669	0	0	0	-0.13343	0.025197	0.050304	-0.10903	0.021779	0.167	-0.14366	-0.087777	0.054388
770	7.2462	-0.077569	-0.014441	0.1674	-0.12716	-0.25334	0.18164	-0.10717	-0.25133	0.20691	-0.046816	-0.15316	-0.008669	-0.046816	0.031938	-0.008669	0	0	0	-0.13344	0.025192	0.050299	-0.10906	0.02178	0.167	-0.14366	-0.087783	0.054387
771	7.2556	-0.077599	-0.014431	0.1674	-0.1273	-0.25328	0.1819	-0.10731	-0.25126	0.20717	-0.046816	-0.15316	-0.008669	-0.046816	0.031938	-0.008669	0	0	0	-0.13344	0.025186	0.050294	-0.10908	0.02178	0.167	-0.14366	-0.087789	0.054385
772	7.265	-0.077629	-0.01442	0.1674	-0.12744	-0.25322	0.18216	-0.10746	-0.25119	0.20743	-0.046816	-0.15316	-0.008669	-0.046816	0.031938	-0.008669	0	0	0	-0.13345	0.02518	0.050289	-0.1091	0.021781	0.167	-0.14366	-0.087795	0.054384
773	7.2744	-0.077659	-0.01441	0.1674	-0.12758	-0.25316	0.18242	-0.10761	-0.25111	0.20769	-0.046816	-0.15316	-0.008669	-0.046816	0.031938	-0.008669	0	0	0	-0.13346	0.025175	0.050284	-0.10912	0.021782	0.167	-0.14366	-0.0878	0.054383
774	7.2839	-0.077688	-0.014398	0.16741	-0.12772	-0.2531	0.18269	-0.10775	-0.25104	0.20796	-0.046816	-0.15316	-0.008669	-0.046816	0.031938	-0.008669	0	0	0	-0.13346	0.025169	0.050279	-0.10915	0.021783	0.167	-0.14366	-0.087806	0.054382
775	7.2933	-0.077718	-0.014387	0.16741	-0.12786	-0.25305	0.18296	-0.10789	-0.25098	0.20823	-0.046816	-0.15316	-0.008669	-0.046816	0.031938	-0.008669	0	0	0	-0.13347	0.025164	0.050274	-0.10917	0.021784	0.167	-0.14367	-0.087811	0.054382
776	7.3027	-0.077747	-0.014375	0.16741	-0.128	-0.25299	0.18324	-0.10804	-0.25091	0.20851	-0.046816	-0.15316	-0.008669	-0.046816	0.031938	-0.008669	0	0	0	-0.13347	0.025159	0.05027	-0.10919	0.021786	0.167	-0.14367	-0.087817	0.054382
777	7.3121	-0.077776	-0.014363	0.16741	-0.12814	-0.25294	0.18351	-0.10818	-0.25084	0.20878	-0.046816	-0.15316	-0.008669	-0.046816	0.031938	-0.008669	0	0	0	-0.13348	0.025154	0.050266	-0.10921	0.021787	0.167	-0.14367	-0.087822	0.054383
778	7.3216	-0.077804	-0.01435	0.16741	-0.12827	-0.25288	0.18379	-0.10831	-0.25078	0.20906	-0.046816	-0.15316	-0.008669	-0.046816	0.031938	-0.008669	0	0	0	-0.13349	0.025149	0.050262	-0.10923	0.021789	0.167	-0.14367	-0.087827	0.054384
779	7.331	-0.077832	-0.014337	0.16741	-0.1284	-0.25283	0.18406	-0.10845	-0.25072	0.20933	-0.046816	-0.15316	-0.008669	-0.046816	0.031938	-0.008669	0	0	0	-0.13349	0.025145	0.050257	-0.10925	0.021791	0.167	-0.14368	-0.087831	0.054386
780	7.3404	-0.07786	-0.014324	0.16741	-0.12854	-0.25278	0.18434	-0.10859	-0.25066	0.20961	-0.046816	-0.15316	-0.008669	-0.046816	0.031938	-0.008669	0	0	0	-0.1335	0.02514	0.050254	-0.10928	0.021793	0.167	-0.14368	-0.087836	0.054388
781	7.3498	-0.077886	-0.01431	0.16741	-0.12867	-0.25273	0.18462	-0.10872	-0.2506	0.20989	-0.046816	-0.15316	-0.008669	-0.046816	0.031938	-0.008669	0	0	0	-0.13351	0.025136	0.05025	-0.1093	0.021796	0.16699	-0.14368	-0.08784	0.05439
782	7.3592	-0.077912	-0.014296	0.16741	-0.1288	-0.25268	0.1849	-0.10885	-0.25054	0.21017	-0.046816	-0.15316	-0.008669	-0.046816	0.031938	-0.008669	0	0	0	-0.13351	0.025133	0.050246	-0.10932	0.021799	0.16699	-0.14369	-0.087844	0.054393
783	7.3687	-0.077938	-0.014281	0.16741	-0.12892	-0.25263	0.18518	-0.10898	-0.25049	0.21045	-0.046816	-0.15316	-0.008669	-0.046816	0.031938	-0.008669	0	0	0	-0.13352	0.025129	0.050243	-0.10934	0.021802	0.16699	-0.14369	-0.087848	0.054396
784	7.3781	-0.077962	-0.014266	0.16741	-0.12905	-0.25258	0.18546	-0.10911	-0.25043	0.21072	-0.046816	-0.15316	-0.008669	-0.046816	0.031938	-0.008669	0	0	0	-0.13353	0.025126	0.05024	-0.10936	0.021805	0.16699	-0.14369	-0.087852	0.0544
785	7.3875	-0.077985	-0.014251	0.16741	-0.12918	-0.25254	0.18574	-0.10924	-0.25038	0.211	-0.046816	-0.15316	-0.008669	-0.046816	0.031938	-0.008669	0	0	0	-0.13353	0.025123	0.050237	-0.10938	0.021809	0.16699	-0.1437	-0.087855	0.054404
